<mxfile host="65bd71144e">
    <diagram id="KVanV6LTp0Y2g-WRXFNR" name="第 1 页">
        <mxGraphModel dx="1038" dy="1671" grid="1" gridSize="10" guides="1" tooltips="1" connect="1" arrows="1" fold="1" page="1" pageScale="1" pageWidth="1169" pageHeight="827" math="0" shadow="0">
            <root>
                <mxCell id="0"/>
                <mxCell id="1" parent="0"/>
                <mxCell id="2" value="" style="rounded=0;whiteSpace=wrap;html=1;fillColor=#d5e8d4;strokeColor=#82b366;" vertex="1" parent="1">
                    <mxGeometry x="245" y="34" width="120" height="120" as="geometry"/>
                </mxCell>
                <mxCell id="3" value="" style="rounded=0;whiteSpace=wrap;html=1;fillColor=#d5e8d4;strokeColor=#82b366;" vertex="1" parent="1">
                    <mxGeometry x="245" y="174" width="120" height="120" as="geometry"/>
                </mxCell>
                <mxCell id="4" value="" style="rounded=0;whiteSpace=wrap;html=1;fillColor=#d5e8d4;strokeColor=#82b366;" vertex="1" parent="1">
                    <mxGeometry x="245" y="314" width="120" height="120" as="geometry"/>
                </mxCell>
                <mxCell id="5" value="" style="rounded=0;whiteSpace=wrap;html=1;fillColor=#d5e8d4;strokeColor=#82b366;" vertex="1" parent="1">
                    <mxGeometry x="245" y="454" width="120" height="120" as="geometry"/>
                </mxCell>
                <mxCell id="6" value="" style="rounded=0;whiteSpace=wrap;html=1;fillColor=#d5e8d4;strokeColor=#82b366;" vertex="1" parent="1">
                    <mxGeometry x="245" y="594" width="120" height="120" as="geometry"/>
                </mxCell>
                <mxCell id="7" value="" style="rounded=0;whiteSpace=wrap;html=1;fillColor=#FFFF99;strokeColor=#d6b656;" vertex="1" parent="1">
                    <mxGeometry x="385" y="34" width="120" height="120" as="geometry"/>
                </mxCell>
                <mxCell id="8" value="" style="rounded=0;whiteSpace=wrap;html=1;fillColor=#FFFF99;strokeColor=#d6b656;" vertex="1" parent="1">
                    <mxGeometry x="385" y="174" width="120" height="120" as="geometry"/>
                </mxCell>
                <mxCell id="9" value="" style="rounded=0;whiteSpace=wrap;html=1;fillColor=#d5e8d4;strokeColor=#82b366;" vertex="1" parent="1">
                    <mxGeometry x="385" y="314" width="120" height="120" as="geometry"/>
                </mxCell>
                <mxCell id="10" value="" style="rounded=0;whiteSpace=wrap;html=1;fillColor=#d5e8d4;strokeColor=#82b366;" vertex="1" parent="1">
                    <mxGeometry x="385" y="454" width="120" height="120" as="geometry"/>
                </mxCell>
                <mxCell id="11" value="" style="rounded=0;whiteSpace=wrap;html=1;fillColor=#d5e8d4;strokeColor=#82b366;" vertex="1" parent="1">
                    <mxGeometry x="385" y="594" width="120" height="120" as="geometry"/>
                </mxCell>
                <mxCell id="12" value="" style="rounded=0;whiteSpace=wrap;html=1;fillColor=#FF9999;strokeColor=#b85450;" vertex="1" parent="1">
                    <mxGeometry x="525" y="34" width="120" height="120" as="geometry"/>
                </mxCell>
                <mxCell id="13" value="" style="rounded=0;whiteSpace=wrap;html=1;fillColor=#FFFF99;strokeColor=#d6b656;" vertex="1" parent="1">
                    <mxGeometry x="525" y="174" width="120" height="120" as="geometry"/>
                </mxCell>
                <mxCell id="14" value="" style="rounded=0;whiteSpace=wrap;html=1;fillColor=#fff2cc;strokeColor=#d6b656;" vertex="1" parent="1">
                    <mxGeometry x="525" y="314" width="120" height="120" as="geometry"/>
                </mxCell>
                <mxCell id="15" value="" style="rounded=0;whiteSpace=wrap;html=1;fillColor=#fff2cc;strokeColor=#d6b656;" vertex="1" parent="1">
                    <mxGeometry x="525" y="454" width="120" height="120" as="geometry"/>
                </mxCell>
                <mxCell id="16" value="" style="rounded=0;whiteSpace=wrap;html=1;fillColor=#d5e8d4;strokeColor=#82b366;" vertex="1" parent="1">
                    <mxGeometry x="525" y="594" width="120" height="120" as="geometry"/>
                </mxCell>
                <mxCell id="17" value="" style="rounded=0;whiteSpace=wrap;html=1;fillColor=#FF9999;strokeColor=#b85450;" vertex="1" parent="1">
                    <mxGeometry x="665" y="34" width="120" height="120" as="geometry"/>
                </mxCell>
                <mxCell id="18" value="" style="rounded=0;whiteSpace=wrap;html=1;fillColor=#FF9999;strokeColor=#b85450;" vertex="1" parent="1">
                    <mxGeometry x="665" y="174" width="120" height="120" as="geometry"/>
                </mxCell>
                <mxCell id="19" value="" style="rounded=0;whiteSpace=wrap;html=1;" vertex="1" parent="1">
                    <mxGeometry x="665" y="314" width="120" height="120" as="geometry"/>
                </mxCell>
                <mxCell id="20" value="" style="rounded=0;whiteSpace=wrap;html=1;" vertex="1" parent="1">
                    <mxGeometry x="665" y="454" width="120" height="120" as="geometry"/>
                </mxCell>
                <mxCell id="21" value="" style="rounded=0;whiteSpace=wrap;html=1;fillColor=#d5e8d4;strokeColor=#82b366;" vertex="1" parent="1">
                    <mxGeometry x="665" y="594" width="120" height="120" as="geometry"/>
                </mxCell>
                <mxCell id="22" value="" style="rounded=0;whiteSpace=wrap;html=1;fillColor=#FF9999;strokeColor=#b85450;" vertex="1" parent="1">
                    <mxGeometry x="805" y="34" width="120" height="120" as="geometry"/>
                </mxCell>
                <mxCell id="23" value="" style="rounded=0;whiteSpace=wrap;html=1;fillColor=#FF9999;strokeColor=#b85450;" vertex="1" parent="1">
                    <mxGeometry x="805" y="174" width="120" height="120" as="geometry"/>
                </mxCell>
                <mxCell id="24" value="" style="rounded=0;whiteSpace=wrap;html=1;fillColor=#FF9999;strokeColor=#b85450;" vertex="1" parent="1">
                    <mxGeometry x="805" y="314" width="120" height="120" as="geometry"/>
                </mxCell>
                <mxCell id="25" value="" style="rounded=0;whiteSpace=wrap;html=1;fillColor=#fff2cc;strokeColor=#d6b656;" vertex="1" parent="1">
                    <mxGeometry x="805" y="454" width="120" height="120" as="geometry"/>
                </mxCell>
                <mxCell id="26" value="" style="rounded=0;whiteSpace=wrap;html=1;fillColor=#fff2cc;strokeColor=#d6b656;" vertex="1" parent="1">
                    <mxGeometry x="805" y="594" width="120" height="120" as="geometry"/>
                </mxCell>
                <mxCell id="27" value="" style="endArrow=classic;html=1;shape=flexArrow;fillColor=#FF9999;strokeColor=#b85450;labelBorderColor=none;labelBackgroundColor=none;startArrow=block;gradientDirection=radial;gradientColor=none;" edge="1" parent="1">
                    <mxGeometry width="50" height="50" relative="1" as="geometry">
                        <mxPoint x="940" y="760" as="sourcePoint"/>
                        <mxPoint x="200" y="20" as="targetPoint"/>
                        <Array as="points">
                            <mxPoint x="200" y="760"/>
                        </Array>
                    </mxGeometry>
                </mxCell>
                <mxCell id="30" value="&lt;b&gt;&lt;font style=&quot;font-size: 24px;&quot; color=&quot;#ff9999&quot;&gt;Severity&lt;/font&gt;&lt;/b&gt;" style="text;strokeColor=none;align=center;fillColor=none;html=1;verticalAlign=middle;whiteSpace=wrap;rounded=0;" vertex="1" parent="1">
                    <mxGeometry x="467" y="770" width="235" height="30" as="geometry"/>
                </mxCell>
                <mxCell id="31" value="&lt;b&gt;&lt;font style=&quot;font-size: 24px;&quot; color=&quot;#ff9999&quot;&gt;Likelihood&lt;br&gt;&lt;/font&gt;&lt;/b&gt;" style="text;strokeColor=none;align=center;fillColor=none;html=1;verticalAlign=middle;whiteSpace=wrap;rounded=0;rotation=270;" vertex="1" parent="1">
                    <mxGeometry x="50" y="399" width="235" height="30" as="geometry"/>
                </mxCell>
                <mxCell id="32" value="" style="rounded=0;whiteSpace=wrap;html=1;fillColor=#FFFF99;strokeColor=#d6b656;" vertex="1" parent="1">
                    <mxGeometry x="665" y="314" width="120" height="120" as="geometry"/>
                </mxCell>
                <mxCell id="33" value="" style="rounded=0;whiteSpace=wrap;html=1;fillColor=#fff2cc;strokeColor=#d6b656;" vertex="1" parent="1">
                    <mxGeometry x="665" y="454" width="120" height="120" as="geometry"/>
                </mxCell>
                <mxCell id="41" value="" style="rounded=0;whiteSpace=wrap;html=1;fillColor=#d5e8d4;strokeColor=#82b366;" vertex="1" parent="1">
                    <mxGeometry x="665" y="594" width="120" height="120" as="geometry"/>
                </mxCell>
                <mxCell id="42" value="" style="rounded=0;whiteSpace=wrap;html=1;fillColor=#d5e8d4;strokeColor=#82b366;" vertex="1" parent="1">
                    <mxGeometry x="525" y="594" width="120" height="120" as="geometry"/>
                </mxCell>
                <mxCell id="43" value="" style="rounded=0;whiteSpace=wrap;html=1;fillColor=#d5e8d4;strokeColor=#82b366;" vertex="1" parent="1">
                    <mxGeometry x="385" y="594" width="120" height="120" as="geometry"/>
                </mxCell>
                <mxCell id="44" value="" style="rounded=0;whiteSpace=wrap;html=1;fillColor=#CCFF99;strokeColor=#82b366;" vertex="1" parent="1">
                    <mxGeometry x="665" y="594" width="120" height="120" as="geometry"/>
                </mxCell>
                <mxCell id="45" value="" style="rounded=0;whiteSpace=wrap;html=1;fillColor=#CCFF99;strokeColor=#82b366;" vertex="1" parent="1">
                    <mxGeometry x="525" y="594" width="120" height="120" as="geometry"/>
                </mxCell>
                <mxCell id="46" value="" style="rounded=0;whiteSpace=wrap;html=1;fillColor=#CCFF99;strokeColor=#82b366;" vertex="1" parent="1">
                    <mxGeometry x="385" y="594" width="120" height="120" as="geometry"/>
                </mxCell>
                <mxCell id="47" value="" style="rounded=0;whiteSpace=wrap;html=1;fillColor=#d5e8d4;strokeColor=#82b366;" vertex="1" parent="1">
                    <mxGeometry x="245" y="454" width="120" height="120" as="geometry"/>
                </mxCell>
                <mxCell id="48" value="" style="rounded=0;whiteSpace=wrap;html=1;fillColor=#d5e8d4;strokeColor=#82b366;" vertex="1" parent="1">
                    <mxGeometry x="385" y="454" width="120" height="120" as="geometry"/>
                </mxCell>
                <mxCell id="49" value="" style="rounded=0;whiteSpace=wrap;html=1;fillColor=#d5e8d4;strokeColor=#82b366;" vertex="1" parent="1">
                    <mxGeometry x="245" y="174" width="120" height="120" as="geometry"/>
                </mxCell>
                <mxCell id="50" value="" style="rounded=0;whiteSpace=wrap;html=1;fillColor=#d5e8d4;strokeColor=#82b366;" vertex="1" parent="1">
                    <mxGeometry x="245" y="34" width="120" height="120" as="geometry"/>
                </mxCell>
                <mxCell id="51" value="" style="rounded=0;whiteSpace=wrap;html=1;fillColor=#d5e8d4;strokeColor=#82b366;" vertex="1" parent="1">
                    <mxGeometry x="245" y="314" width="120" height="120" as="geometry"/>
                </mxCell>
                <mxCell id="52" value="" style="rounded=0;whiteSpace=wrap;html=1;fillColor=#d5e8d4;strokeColor=#82b366;" vertex="1" parent="1">
                    <mxGeometry x="385" y="314" width="120" height="120" as="geometry"/>
                </mxCell>
                <mxCell id="53" value="" style="rounded=0;whiteSpace=wrap;html=1;fillColor=#d5e8d4;strokeColor=#82b366;" vertex="1" parent="1">
                    <mxGeometry x="245" y="454" width="120" height="120" as="geometry"/>
                </mxCell>
                <mxCell id="54" value="" style="rounded=0;whiteSpace=wrap;html=1;fillColor=#d5e8d4;strokeColor=#82b366;" vertex="1" parent="1">
                    <mxGeometry x="385" y="454" width="120" height="120" as="geometry"/>
                </mxCell>
                <mxCell id="55" value="" style="rounded=0;whiteSpace=wrap;html=1;fillColor=#d5e8d4;strokeColor=#82b366;" vertex="1" parent="1">
                    <mxGeometry x="245" y="594" width="120" height="120" as="geometry"/>
                </mxCell>
                <mxCell id="56" value="" style="rounded=0;whiteSpace=wrap;html=1;fillColor=#CCFF99;strokeColor=#82b366;" vertex="1" parent="1">
                    <mxGeometry x="245" y="174" width="120" height="120" as="geometry"/>
                </mxCell>
                <mxCell id="57" value="" style="rounded=0;whiteSpace=wrap;html=1;fillColor=#CCFF99;strokeColor=#82b366;" vertex="1" parent="1">
                    <mxGeometry x="245" y="34" width="120" height="120" as="geometry"/>
                </mxCell>
                <mxCell id="58" value="" style="rounded=0;whiteSpace=wrap;html=1;fillColor=#CCFF99;strokeColor=#82b366;" vertex="1" parent="1">
                    <mxGeometry x="245" y="314" width="120" height="120" as="geometry"/>
                </mxCell>
                <mxCell id="59" value="" style="rounded=0;whiteSpace=wrap;html=1;fillColor=#CCFF99;strokeColor=#82b366;" vertex="1" parent="1">
                    <mxGeometry x="385" y="314" width="120" height="120" as="geometry"/>
                </mxCell>
                <mxCell id="60" value="" style="rounded=0;whiteSpace=wrap;html=1;fillColor=#CCFF99;strokeColor=#82b366;" vertex="1" parent="1">
                    <mxGeometry x="245" y="454" width="120" height="120" as="geometry"/>
                </mxCell>
                <mxCell id="61" value="" style="rounded=0;whiteSpace=wrap;html=1;fillColor=#CCFF99;strokeColor=#82b366;" vertex="1" parent="1">
                    <mxGeometry x="385" y="454" width="120" height="120" as="geometry"/>
                </mxCell>
                <mxCell id="62" value="" style="rounded=0;whiteSpace=wrap;html=1;fillColor=#CCFF99;strokeColor=#82b366;" vertex="1" parent="1">
                    <mxGeometry x="245" y="594" width="120" height="120" as="geometry"/>
                </mxCell>
                <mxCell id="63" value="" style="rounded=0;whiteSpace=wrap;html=1;fillColor=#FFFF99;strokeColor=#d6b656;" vertex="1" parent="1">
                    <mxGeometry x="665" y="454" width="120" height="120" as="geometry"/>
                </mxCell>
                <mxCell id="64" value="" style="rounded=0;whiteSpace=wrap;html=1;fillColor=#FFFF99;strokeColor=#d6b656;" vertex="1" parent="1">
                    <mxGeometry x="805" y="454" width="120" height="120" as="geometry"/>
                </mxCell>
                <mxCell id="65" value="" style="rounded=0;whiteSpace=wrap;html=1;fillColor=#FFFF99;strokeColor=#d6b656;" vertex="1" parent="1">
                    <mxGeometry x="805" y="594" width="120" height="120" as="geometry"/>
                </mxCell>
                <mxCell id="66" value="" style="rounded=0;whiteSpace=wrap;html=1;fillColor=#FFFF99;strokeColor=#d6b656;" vertex="1" parent="1">
                    <mxGeometry x="525" y="454" width="120" height="120" as="geometry"/>
                </mxCell>
                <mxCell id="67" value="" style="rounded=0;whiteSpace=wrap;html=1;fillColor=#FFFF99;strokeColor=#d6b656;" vertex="1" parent="1">
                    <mxGeometry x="525" y="314" width="120" height="120" as="geometry"/>
                </mxCell>
                <mxCell id="68" value="&lt;b&gt;&lt;font color=&quot;#333333&quot;&gt;W1&lt;/font&gt;&lt;/b&gt;" style="text;strokeColor=none;align=center;fillColor=none;html=1;verticalAlign=middle;whiteSpace=wrap;rounded=0;fontSize=24;fontColor=#FF9999;" vertex="1" parent="1">
                    <mxGeometry x="385" y="174" width="60" height="60" as="geometry"/>
                </mxCell>
                <mxCell id="69" value="&lt;b&gt;&lt;font color=&quot;#333333&quot;&gt;W2&lt;/font&gt;&lt;/b&gt;" style="text;strokeColor=none;align=center;fillColor=none;html=1;verticalAlign=middle;whiteSpace=wrap;rounded=0;fontSize=24;fontColor=#FF9999;" vertex="1" parent="1">
                    <mxGeometry x="525" y="454" width="60" height="60" as="geometry"/>
                </mxCell>
                <mxCell id="70" value="&lt;b&gt;&lt;font color=&quot;#333333&quot;&gt;W3&lt;/font&gt;&lt;/b&gt;&lt;span style=&quot;color: rgba(0, 0, 0, 0); font-family: monospace; font-size: 0px; text-align: start;&quot;&gt;%3CmxGraphModel%3E%3Croot%3E%3CmxCell%20id%3D%220%22%2F%3E%3CmxCell%20id%3D%221%22%20parent%3D%220%22%2F%3E%3CmxCell%20id%3D%222%22%20value%3D%22%26lt%3Bb%26gt%3B%26lt%3Bfont%20color%3D%26quot%3B%23333333%26quot%3B%26gt%3BW1%26lt%3B%2Ffont%26gt%3B%26lt%3B%2Fb%26gt%3B%22%20style%3D%22text%3BstrokeColor%3Dnone%3Balign%3Dcenter%3BfillColor%3Dnone%3Bhtml%3D1%3BverticalAlign%3Dmiddle%3BwhiteSpace%3Dwrap%3Brounded%3D0%3BfontSize%3D24%3BfontColor%3D%23FF9999%3B%22%20vertex%3D%221%22%20parent%3D%221%22%3E%3CmxGeometry%20x%3D%22385%22%20y%3D%22174%22%20width%3D%2260%22%20height%3D%2260%22%20as%3D%22geometry%22%2F%3E%3C%2FmxCell%3E%3C%2Froot%3E%3C%2FmxGraphModel%3E&lt;/span&gt;" style="text;strokeColor=none;align=center;fillColor=none;html=1;verticalAlign=middle;whiteSpace=wrap;rounded=0;fontSize=24;fontColor=#FF9999;" vertex="1" parent="1">
                    <mxGeometry x="525" y="594" width="60" height="60" as="geometry"/>
                </mxCell>
                <mxCell id="71" value="&lt;b&gt;&lt;font color=&quot;#333333&quot;&gt;W4&lt;/font&gt;&lt;/b&gt;&lt;span style=&quot;color: rgba(0, 0, 0, 0); font-family: monospace; font-size: 0px; text-align: start;&quot;&gt;%3CmxGraphModel%3E%3Croot%3E%3CmxCell%20id%3D%220%22%2F%3E%3CmxCell%20id%3D%221%22%20parent%3D%220%22%2F%3E%3CmxCell%20id%3D%222%22%20value%3D%22%26lt%3Bb%26gt%3B%26lt%3Bfont%20color%3D%26quot%3B%23333333%26quot%3B%26gt%3BW1%26lt%3B%2Ffont%26gt%3B%26lt%3B%2Fb%26gt%3B%22%20style%3D%22text%3BstrokeColor%3Dnone%3Balign%3Dcenter%3BfillColor%3Dnone%3Bhtml%3D1%3BverticalAlign%3Dmiddle%3BwhiteSpace%3Dwrap%3Brounded%3D0%3BfontSize%3D24%3BfontColor%3D%23FF9999%3B%22%20vertex%3D%221%22%20parent%3D%221%22%3E%3CmxGeometry%20x%3D%22385%22%20y%3D%22174%22%20width%3D%2260%22%20height%3D%2260%22%20as%3D%22geometry%22%2F%3E%3C%2FmxCell%3E%3C%2Froot%3E%3C%2FmxGraphModel%3E&lt;/span&gt;" style="text;strokeColor=none;align=center;fillColor=none;html=1;verticalAlign=middle;whiteSpace=wrap;rounded=0;fontSize=24;fontColor=#FF9999;" vertex="1" parent="1">
                    <mxGeometry x="245" y="594" width="60" height="60" as="geometry"/>
                </mxCell>
                <mxCell id="72" value="&lt;b&gt;&lt;font color=&quot;#333333&quot;&gt;T2&lt;/font&gt;&lt;/b&gt;" style="text;strokeColor=none;align=center;fillColor=none;html=1;verticalAlign=middle;whiteSpace=wrap;rounded=0;fontSize=24;fontColor=#FF9999;" vertex="1" parent="1">
                    <mxGeometry x="805" y="594" width="60" height="60" as="geometry"/>
                </mxCell>
                <mxCell id="73" value="&lt;b&gt;&lt;font color=&quot;#333333&quot;&gt;T1&lt;/font&gt;&lt;/b&gt;" style="text;strokeColor=none;align=center;fillColor=none;html=1;verticalAlign=middle;whiteSpace=wrap;rounded=0;fontSize=24;fontColor=#FF9999;" vertex="1" parent="1">
                    <mxGeometry x="805" y="454" width="60" height="60" as="geometry"/>
                </mxCell>
            </root>
        </mxGraphModel>
    </diagram>
</mxfile>
